<svg width="200" height="99" viewBox="0 0 200 99" fill="none" xmlns="http://www.w3.org/2000/svg">
<g id="Logo">
<path d="M173.117 26.5585C181.571 26.5585 188.165 29.0879 192.899 34.1467C197.633 39.2054 200 46.49 200 56.0005V99H176.059V56.7087C176.059 53.2013 175.146 50.537 173.32 48.7159C171.494 46.8273 168.991 45.883 165.813 45.883C162.567 45.883 159.963 46.8947 158.002 48.9182C156.108 50.8743 155.161 53.7409 155.161 57.5181V99H131.22V56.7087C131.22 53.2013 130.374 50.537 128.684 48.7159C127.061 46.8273 124.761 45.883 121.785 45.883C118.742 45.883 116.341 46.8947 114.583 48.9182C112.824 50.8743 111.945 53.7409 111.945 57.5181V99H88.0041V28.1773H111.134V35.2596C115.53 29.4589 122.056 26.5585 130.713 26.5585C139.775 26.5585 146.504 29.7287 150.9 36.069C153.403 32.8988 156.547 30.5381 160.335 28.9867C164.19 27.3679 168.45 26.5585 173.117 26.5585Z" fill="#EA7070"/>
<path d="M85.1129 0C93.5667 0 100.161 2.52938 104.895 7.58814C109.629 12.6469 111.996 19.9315 111.996 29.442V72.4415H88.0548V30.1502C88.0548 26.6428 87.1418 23.9785 85.3158 22.1574C83.4897 20.2688 80.9874 19.3245 77.8088 19.3245C74.5625 19.3245 71.9587 20.3362 69.9975 22.3597C68.1038 24.3158 67.157 27.1824 67.157 30.9596V72.4415H43.2158V30.1502C43.2158 26.6428 42.3704 23.9785 40.6797 22.1574C39.0566 20.2688 36.7571 19.3245 33.7814 19.3245C30.738 19.3245 28.3371 20.3362 26.5787 22.3597C24.8204 24.3158 23.9412 27.1824 23.9412 30.9596V72.4415H0V1.6188H23.1296V8.70107C27.5256 2.90036 34.0519 0 42.7086 0C51.7711 0 58.5003 3.17016 62.8963 9.51047C65.3986 6.34032 68.5434 3.97956 72.3307 2.42821C76.1857 0.809402 80.4464 0 85.1129 0Z" fill="#EA7070"/>
</g>
</svg>
